<svg width="800" height="600" xmlns="http://www.w3.org/2000/svg">
  <defs>
    <pattern id="grid" width="40" height="40" patternUnits="userSpaceOnUse">
      <path d="M 40 0 L 0 0 0 40" fill="none" stroke="rgba(92,92,92,0.3)" stroke-width="1"/>
    </pattern>
    <pattern id="dots" width="80" height="80" patternUnits="userSpaceOnUse">
      <circle cx="20" cy="20" r="2" fill="rgba(92,92,92,0.2)"/>
      <circle cx="60" cy="60" r="1" fill="rgba(92,92,92,0.2)"/>
    </pattern>
  </defs>
  
  <!-- Fond blanc -->
  <rect width="100%" height="100%" fill="#f5f2ed"/>
  
  <!-- Plans architecturaux en haut à gauche -->
  <g opacity="0.4">
    <rect x="50" y="50" width="120" height="80" fill="white" stroke="rgba(92,92,92,0.2)" stroke-width="1"/>
    <rect x="60" y="60" width="100" height="60" fill="none" stroke="rgba(92,92,92,0.3)" stroke-width="0.5"/>
    <line x1="70" y1="70" x2="150" y2="70" stroke="rgba(92,92,92,0.2)" stroke-width="0.5"/>
    <line x1="70" y1="80" x2="150" y2="80" stroke="rgba(92,92,92,0.2)" stroke-width="0.5"/>
    <line x1="70" y1="90" x2="150" y2="90" stroke="rgba(92,92,92,0.2)" stroke-width="0.5"/>
  </g>
  
  <!-- Esquisses architecturales en haut à droite -->
  <g opacity="0.3">
    <path d="M 600 80 L 650 60 L 700 80 L 680 120 L 620 120 Z" fill="none" stroke="rgba(92,92,92,0.3)" stroke-width="1"/>
    <path d="M 620 120 L 680 120 L 680 160 L 620 160 Z" fill="none" stroke="rgba(92,92,92,0.3)" stroke-width="1"/>
    <line x1="640" y1="100" x2="660" y2="100" stroke="rgba(92,92,92,0.2)" stroke-width="0.5"/>
    <line x1="640" y1="110" x2="660" y2="110" stroke="rgba(92,92,92,0.2)" stroke-width="0.5"/>
  </g>
  
  <!-- Plan d'étage en diagonale -->
  <g opacity="0.2" transform="rotate(-15 400 300)">
    <rect x="200" y="200" width="400" height="200" fill="white" stroke="rgba(92,92,92,0.2)" stroke-width="1"/>
    <line x1="250" y1="220" x2="550" y2="220" stroke="rgba(92,92,92,0.3)" stroke-width="0.5"/>
    <line x1="250" y1="240" x2="550" y2="240" stroke="rgba(92,92,92,0.3)" stroke-width="0.5"/>
    <line x1="250" y1="260" x2="550" y2="260" stroke="rgba(92,92,92,0.3)" stroke-width="0.5"/>
    <line x1="250" y1="280" x2="550" y2="280" stroke="rgba(92,92,92,0.3)" stroke-width="0.5"/>
    <line x1="250" y1="300" x2="550" y2="300" stroke="rgba(92,92,92,0.3)" stroke-width="0.5"/>
    <line x1="250" y1="320" x2="550" y2="320" stroke="rgba(92,92,92,0.3)" stroke-width="0.5"/>
    <line x1="250" y1="340" x2="550" y2="340" stroke="rgba(92,92,92,0.3)" stroke-width="0.5"/>
    <line x1="250" y1="360" x2="550" y2="360" stroke="rgba(92,92,92,0.3)" stroke-width="0.5"/>
    <line x1="250" y1="380" x2="550" y2="380" stroke="rgba(92,92,92,0.3)" stroke-width="0.5"/>
    
    <!-- Mesures -->
    <text x="300" y="210" font-family="Arial" font-size="8" fill="rgba(92,92,92,0.4)">3600</text>
    <text x="400" y="210" font-family="Arial" font-size="8" fill="rgba(92,92,92,0.4)">4700</text>
    <text x="500" y="210" font-family="Arial" font-size="8" fill="rgba(92,92,92,0.4)">1807</text>
  </g>
  
  <!-- Grille de fond -->
  <rect width="100%" height="100%" fill="url(#grid)"/>
  <rect width="100%" height="100%" fill="url(#dots)"/>
</svg>
